<svg width="9" height="12" viewBox="0.239013671875 0.06998443603515625 8.52197265625 11.860031127929688" fill="none" xmlns="http://www.w3.org/2000/svg">
<path d="M4.97913 1.20404C5.77514 1.29881 6.85801 1.7289 7.97672 3.52944C9.35361 5.75278 8.33529 8.20939 6.73609 9.41218C5.1369 10.6223 5.16559 12 5.16559 12L4.90742 11.2929C4.72097 10.7462 4.64208 10.1703 4.70662 9.59442C4.74248 9.2518 4.82136 8.88003 4.96479 8.57387C5.35204 7.76472 4.14009 7.23257 3.79587 6.56193C3.53771 6.04436 3.52336 4.86344 3.10743 4.01056L2.61261 3.36178C2.61261 3.36178 1.47955 2.5016 0.368003 2.74216C-0.743545 2.99001 0.626169 -2.30227 4.97913 1.20404Z" fill="#F7BD1E"/>
</svg>
