<svg width="10" height="13" viewBox="0.24575424194335938 0.3871307373046875 9.508491516113281 12.225738525390625" fill="none" xmlns="http://www.w3.org/2000/svg">
<path d="M4.58094 12.8198C4.8642 12.6077 5.19217 12.4789 5.52015 12.3576C5.58723 12.3046 5.64687 12.2591 5.72141 12.2061C5.90776 12.0697 6.11647 11.9712 6.32518 11.8954C6.86932 11.4863 7.44328 11.1301 8.04705 10.7968C8.17377 10.7286 8.28558 10.6528 8.40484 10.5846C8.74027 10.2967 9.07571 10.0088 9.38132 9.68294C9.56767 9.48594 9.77638 9.31924 10 9.17528C8.51666 6.51574 5.01328 0.628389 2.76217 0.0146492C1.45772 -0.341471 -1.30772 5.89442 0.719772 7.92507C1.8006 9.00858 3.49266 11.3878 4.5064 12.8577C4.54367 12.8577 4.55858 12.835 4.58094 12.8198Z" fill="#E39245"/>
</svg>
