<svg width="21" height="15" viewBox="0.12538909912109375 0.2425246238708496 20.749221801757812 14.5149507522583" fill="none" xmlns="http://www.w3.org/2000/svg">
<path d="M20.8407 7.53391C20.5222 6.4772 19.8105 5.09146 19.4047 4.136C18.7179 2.50982 18.5119 0.9912 17.9 0.345789C17.5691 -0.00222742 13.361 0.0483937 12.8428 0.00410077C12.6305 -0.0148819 11.7876 0.0357379 10.9698 0.0800309C10.489 0.117996 5.74398 0.453358 5.0572 0.725443C2.90945 2.63004 1.46097 4.94593 0.0437042 7.51492C0.0312173 7.54023 0.0124869 7.56554 0 7.59085C0.249738 7.81232 0.493233 8.04011 0.724241 8.2679C1.06763 8.52101 1.37356 8.8184 1.62954 9.16642C1.66076 9.21071 1.67949 9.23602 1.69822 9.26766C1.73568 9.29297 1.79187 9.33726 1.87304 9.40054C2.26013 9.71059 2.61601 9.98267 2.97189 10.318C3.19665 10.5332 3.41517 10.761 3.64618 10.9761C3.78978 11.0963 3.92714 11.2229 4.05825 11.3621C4.20809 11.5076 4.24555 11.5582 4.1956 11.5329C4.3392 11.6342 4.4828 11.7354 4.61392 11.843C4.6264 11.8556 4.63889 11.8683 4.65138 11.8746L5.78769 10.1409C5.8189 10.1156 5.97499 9.97002 6.01869 10.0649C6.04367 10.1219 6.36833 12.1657 6.76167 14.6904L20.2163 11.8936C20.491 10.8812 21.3526 9.22969 20.8407 7.53391Z" fill="#4D4D4D"/>
</svg>
