<svg width="17" height="25" viewBox="0.21802902221679688 0.406097412109375 16.563941955566406 24.18780517578125" fill="none" xmlns="http://www.w3.org/2000/svg">
<path d="M13.2442 0.0667557C9.90369 0.746967 7.73727 2.79226 6.94058 3.66349C5.42176 3.84053 3.36249 4.6838 1.22867 8.21065C-1.38967 12.5482 0.543804 17.3562 3.59078 19.7137C6.63775 22.0711 6.58184 24.8246 6.58184 24.8246L7.08035 23.3849C7.43443 22.318 7.58352 21.1859 7.46239 20.0678C7.3925 19.3969 7.24807 18.6701 6.96853 18.0737C6.23708 16.499 8.54327 15.4507 9.19087 14.1415C9.68938 13.1305 9.71267 10.8243 10.5 9.15642L11.4365 7.88452C11.4365 7.88452 13.5983 6.20263 15.7181 6.67785C17.8379 7.1484 17.5351 -0.804473 13.2442 0.0667557Z" fill="#42210B"/>
</svg>
