<svg width="37" height="54" viewBox="0.2556610107421875 0.358367919921875 36.488677978515625 53.28326416015625" fill="none" xmlns="http://www.w3.org/2000/svg">
<path d="M28.8096 0.145211C21.5432 1.62485 16.8306 6.0739 15.0976 7.96906C11.7938 8.35417 7.3143 10.1885 2.67269 17.8603C-3.02291 27.2956 1.18292 37.7544 7.81089 42.8825C14.4389 48.0105 14.3173 54 14.3173 54L15.4016 50.8685C16.1719 48.5476 16.4962 46.085 16.2327 43.6527C16.0807 42.1933 15.7665 40.6123 15.1584 39.3151C13.5673 35.8896 18.5839 33.6094 19.9926 30.7616C21.077 28.5624 21.1276 23.5458 22.8404 19.9176L24.8774 17.1509C24.8774 17.1509 29.5798 13.4924 34.191 14.5261C38.8022 15.5497 38.1435 -1.74994 28.8096 0.145211Z" fill="#42210B"/>
</svg>
