<svg width="13" height="18" viewBox="0.498565673828125 0.236328125 12.00286865234375 17.52734375" fill="none" xmlns="http://www.w3.org/2000/svg">
<path d="M9.60323 0.0484039C7.18107 0.541618 5.61022 2.02464 5.03255 2.65636C3.93126 2.78473 2.43811 3.39618 0.8909 5.95346C-1.00764 9.09855 0.394307 12.5848 2.60364 14.2942C4.81297 16.0035 4.77243 18.0001 4.77243 18.0001L5.13389 16.9562C5.39064 16.1826 5.49874 15.3617 5.41091 14.5509C5.36023 14.0645 5.25551 13.5375 5.05282 13.1051C4.52244 11.9632 6.19464 11.2032 6.66421 10.2539C7.02568 9.52082 7.04257 7.84862 7.61348 6.63923L8.29249 5.71699C8.29249 5.71699 9.85997 4.49747 11.397 4.84204C12.9341 5.18324 12.7145 -0.583316 9.60323 0.0484039Z" fill="#42210B"/>
</svg>
