<svg width="32" height="11" viewBox="0.24961280822753906 0.209869384765625 31.500774383544922 10.58026123046875" fill="none" xmlns="http://www.w3.org/2000/svg">
<path opacity="0.47" d="M0 10.7479C0.401573 8.76106 1.97038 7.28164 3.84707 7.28164C4.19242 7.28164 4.52439 7.33265 4.84297 7.42663C5.76926 5.18468 7.77713 3.63008 10.1063 3.63008C10.7086 3.63008 11.2895 3.73479 11.8357 3.92543C13.0886 1.57339 15.3669 0 17.969 0C21.0638 0 23.7008 2.22584 24.6994 5.34309C25.4062 4.89738 26.22 4.63963 27.0874 4.63963C29.8021 4.63963 32 7.13128 32 10.2056C32 10.3882 31.992 10.568 31.9759 10.7452H0V10.7479Z" fill="#F0FBFF"/>
</svg>
