<svg width="27" height="10" viewBox="0.30857276916503906 0.386505126953125 26.382854461669922 9.22698974609375" fill="none" xmlns="http://www.w3.org/2000/svg">
<path opacity="0.47" d="M27 9.44284C26.6602 7.69817 25.3359 6.39711 23.7555 6.39711C23.4642 6.39711 23.1837 6.44039 22.914 6.52424C22.1346 4.55507 20.4381 3.18909 18.4747 3.18909C17.9676 3.18909 17.4768 3.28105 17.0156 3.44876C15.9583 1.38221 14.0354 0 11.84 0C9.22655 0 7.0042 1.95565 6.16002 4.69302C5.56398 4.3008 4.87624 4.0763 4.14534 4.0763C1.85556 4.0763 0 6.26457 0 8.96677C0 9.12636 0.00809102 9.28595 0.0188792 9.44013H27V9.44284Z" fill="#F0FBFF"/>
</svg>
