<svg width="10" height="7" viewBox="0.29170894622802734 0.091644287109375 9.416582107543945 6.81671142578125" fill="none" xmlns="http://www.w3.org/2000/svg">
<path d="M0.24383 3.61777C0.24383 3.61777 1.10713 3.72905 1.56719 3.91361C2.02725 4.09817 5.66444 6.86389 5.66444 6.86389C5.66444 6.86389 6.15157 7.12988 6.40866 6.91817C6.66575 6.70647 6.64681 6.45677 6.64681 6.45677C6.64681 6.45677 7.07981 6.69561 7.37208 6.53005C7.66706 6.36449 7.65624 6.08764 7.62106 5.94922C7.62106 5.94922 8.04323 6.06864 8.29221 5.85694C8.54118 5.64524 8.41128 5.10241 8.41128 5.10241C8.41128 5.10241 9.19339 5.58281 9.49649 5.25983C9.79959 4.93684 9.67239 4.59757 9.36659 4.33702C9.06349 4.07917 7.26113 2.87952 7.05004 2.74381C6.83895 2.60539 6.24088 1.97028 6.05685 1.88614C5.87283 1.802 5.42359 1.55501 5.42359 1.55501C5.42359 1.55501 4.67125 1.63915 4.62524 1.66629C4.57924 1.69343 4.36815 2.21998 3.99198 2.3584C3.61582 2.49682 3.1747 2.30412 3.15575 2.24712C3.13681 2.19284 3.12869 2.07341 3.14764 1.96213C3.16658 1.85085 3.44262 1.44645 3.50486 1.12346C3.56981 0.800479 3.65099 0.708197 3.77007 0.634915C3.88914 0.561633 4.54135 0.368931 4.8634 0.238651C5.18544 0.108372 6.53585 0.488353 6.53585 0.488353L7.17994 0.765197C7.17994 0.765197 7.06087 0.287507 6.65493 0.214225C6.2517 0.140943 5.74563 0.029659 5.46147 0.00251755C5.17732 -0.024624 4.51429 0.176225 4.21119 0.195224C3.90809 0.214223 3.33707 0.260365 2.99879 0.387931C2.6578 0.51821 0.601054 0.387929 0.471154 0.368929C0.47386 0.363501 -0.416494 2.78724 0.24383 3.61777Z" fill="#8B5E3C"/>
</svg>
