<svg width="21" height="15" viewBox="0.125396728515625 0.2425241470336914 20.74920654296875 14.514951705932617" fill="none" xmlns="http://www.w3.org/2000/svg">
<path d="M20.8407 7.53391C20.5223 6.47721 19.8105 5.09147 19.4047 4.136C18.7179 2.50982 18.5119 0.991201 17.9 0.345789C17.5691 -0.00222743 13.361 0.0483938 12.8428 0.00410077C12.6305 -0.0148819 11.7877 0.0357379 10.9698 0.0800309C10.489 0.117996 5.74399 0.453358 5.05721 0.725443C2.90945 2.63004 1.46097 4.94593 0.0437042 7.51493C0.0312173 7.54024 0.0124869 7.56555 0 7.59086C0.249739 7.81232 0.493234 8.04012 0.724242 8.26791C1.06763 8.52101 1.37356 8.81841 1.62954 9.16642C1.66076 9.21072 1.67949 9.23603 1.69822 9.26766C1.73568 9.29297 1.79187 9.33727 1.87304 9.40054C2.26013 9.71059 2.61601 9.98268 2.97189 10.318C3.19665 10.5332 3.41517 10.761 3.64618 10.9761C3.78978 11.0963 3.92714 11.2229 4.05825 11.3621C4.20809 11.5076 4.24555 11.5582 4.19561 11.5329C4.33921 11.6342 4.48281 11.7354 4.61392 11.843C4.62641 11.8556 4.63889 11.8683 4.65138 11.8746L5.78769 10.1409C5.81891 10.1156 5.97499 9.97003 6.0187 10.0649C6.04367 10.1219 6.36833 12.1657 6.76167 14.6904L20.2163 11.8936C20.491 10.8812 21.3526 9.2297 20.8407 7.53391Z" fill="#4D4D4D"/>
</svg>
