<svg width="16" height="44" viewBox="0.3269329071044922 0.3382568359375 15.346134185791016 43.323486328125" fill="none" xmlns="http://www.w3.org/2000/svg">
<path d="M14.9592 34.4564C14.9672 34.3866 14.9699 34.3195 14.9619 34.2497C14.7424 32.027 12.9036 13.352 12.5931 12.5601C12.3121 11.8434 4.05763 0 4.05763 0L0 5.54588L7.9413 16.1679C8.11795 16.8416 10.9845 29.4474 10.9845 29.4474C10.9845 29.4474 11.5707 31.7452 11.8357 33.1223C11.7152 33.4524 11.5974 33.7665 11.4931 34.0242C11.2308 34.5745 10.9203 35.0228 10.6366 35.404C10.2806 35.8818 9.69442 36.9233 9.62215 37.2025C9.53918 37.5273 9.38663 38.2011 9.30098 38.6064C9.21533 39.0144 9.09756 39.4869 9.07882 39.707C9.06812 39.8412 8.92893 40.1096 8.82187 40.2975C8.66396 40.5794 8.93429 40.9123 9.23941 40.8103C9.52848 40.7136 9.7533 40.3405 9.88981 40.107C10.2806 39.4493 10.4894 38.2467 10.5857 38.3084C10.6821 38.3729 11.0247 40.413 11.0782 40.6438C11.1317 40.8747 11.5439 43.245 11.7741 43.6771C12.007 44.1093 12.3121 44.0368 12.3951 43.7657C12.4647 43.5322 12.1381 40.217 12.1381 40.217C12.1381 40.217 12.098 39.7929 12.2826 39.9271C12.4673 40.0586 12.7698 43.0678 12.8982 43.508C13.0267 43.9483 13.3185 44.1818 13.5674 43.8275C13.8698 43.398 13.3506 40.2036 13.3506 40.2036C13.3506 40.2036 13.2917 39.8036 13.463 39.8385C13.6343 39.8761 13.8484 42.4397 13.9822 42.6625C14.1161 42.8853 14.4506 42.9631 14.6112 42.5953C14.7986 42.1605 14.3115 39.3151 14.3115 39.3151C14.3115 39.3151 14.3355 39.0896 14.4426 39.1647C14.5497 39.2399 14.8869 41.4142 15.1091 41.6156C15.2937 41.7847 15.449 41.6209 15.449 41.6209C15.8531 41.3444 15.2322 39.2775 15.2402 38.2494C15.2456 37.2213 14.7718 36.067 14.9137 34.8429C14.919 34.7651 14.9431 34.5745 14.9592 34.4564Z" fill="#FFD49C"/>
</svg>
