<svg width="25" height="19" viewBox="0.4984464645385742 0.266510009765625 24.00310707092285 18.46697998046875" fill="none" xmlns="http://www.w3.org/2000/svg">
<path d="M24.5251 5.94851C24.5685 5.4563 22.2854 5.64937 22.055 5.22243C21.8218 4.79549 24.6932 4.02591 24.6959 3.59897C24.6986 2.81035 21.4991 4.2489 21.4774 3.8845C21.4557 3.52283 24.6824 1.87761 24.1618 1.37996C23.6412 0.882317 20.9948 3.43581 20.7968 3.05781C20.6016 2.67982 23.4731 0.904071 23.1938 0.0365922C23.0446 -0.42842 18.6684 3.69414 18.0149 3.58809C17.3587 3.48203 18.023 0.953022 17.4699 0.74363C16.9168 0.534239 16.792 5.71192 16.5073 5.95666C16.2253 6.19869 10.3442 11.8876 8.05572 13.1385C7.55139 12.3934 4.31121 8.57814 3.85298 7.86838C2.72772 9.19815 1.19033 9.81817 0 11.0718C1.6811 13.3914 6.81659 18.8438 7.61376 18.9852C10.0405 19.4175 16.689 10.2669 18.0664 8.63796C19.4438 7.00906 20.5067 7.15319 21.5479 6.48422C22.5891 5.81254 24.4844 6.44071 24.5251 5.94851Z" fill="#8B5E3C"/>
</svg>
