<svg width="12" height="16" viewBox="0.18255043029785156 0.01043701171875 11.634899139404297 15.9791259765625" fill="none" xmlns="http://www.w3.org/2000/svg">
<path d="M6.7279 1.60285C7.80455 1.72459 9.2691 2.29889 10.7785 4.70459C12.6362 7.66342 11.2641 10.9425 9.10022 12.5489C6.93638 14.158 6.97596 16 6.97596 16L6.62499 15.0552C6.37167 14.3274 6.26875 13.5546 6.35319 12.7924C6.40333 12.3346 6.50624 11.8396 6.70416 11.4321C7.22401 10.3576 5.5853 9.64303 5.12614 8.75114C4.77254 8.06304 4.7567 6.48835 4.19727 5.35034L3.53229 4.48228C3.53229 4.48228 1.99648 3.33368 0.494991 3.65656C-1.00123 3.98209 0.843315 -3.06564 6.7279 1.60285Z" fill="#F7BD1E"/>
</svg>
