<svg width="10" height="13" viewBox="0.245758056640625 0.3871269226074219 9.50848388671875 12.225746154785156" fill="none" xmlns="http://www.w3.org/2000/svg">
<path d="M4.58095 12.8198C4.8642 12.6077 5.19218 12.4789 5.52015 12.3576C5.58724 12.3046 5.64687 12.2591 5.72141 12.2061C5.90776 12.0697 6.11647 11.9712 6.32518 11.8954C6.86933 11.4863 7.44328 11.1302 8.04706 10.7968C8.17378 10.7286 8.28559 10.6528 8.40485 10.5846C8.74028 10.2967 9.07571 10.0088 9.38133 9.68295C9.56768 9.48594 9.77639 9.31925 10 9.17528C8.51666 6.51575 5.01328 0.628389 2.76217 0.0146492C1.45772 -0.341471 -1.30772 5.89443 0.719773 7.92507C1.8006 9.00859 3.49266 11.3878 4.50641 12.8577C4.54368 12.8577 4.55859 12.835 4.58095 12.8198Z" fill="#E39245"/>
</svg>
