<svg width="13" height="18" viewBox="0.498565673828125 0.23630142211914062 12.00286865234375 17.52739715576172" fill="none" xmlns="http://www.w3.org/2000/svg">
<path d="M9.6032 0.0484038C7.18105 0.541617 5.6102 2.02463 5.03253 2.65635C3.93125 2.78472 2.4381 3.39617 0.890897 5.95345C-1.00763 9.09852 0.394306 12.5848 2.60363 14.2941C4.81295 16.0035 4.77242 18 4.77242 18L5.13388 16.9561C5.39062 16.1825 5.49872 15.3616 5.41089 14.5509C5.36022 14.0644 5.25549 13.5374 5.0528 13.105C4.52243 11.9632 6.19462 11.2031 6.66419 10.2539C7.02565 9.52079 7.04254 7.8486 7.61346 6.63921L8.29247 5.71697C8.29247 5.71697 9.85994 4.49745 11.397 4.84203C12.9341 5.18322 12.7145 -0.583314 9.6032 0.0484038Z" fill="#42210B"/>
</svg>
