<svg width="13" height="18" viewBox="0.498565673828125 0.236297607421875 12.00286865234375 17.52740478515625" fill="none" xmlns="http://www.w3.org/2000/svg">
<path d="M9.60319 0.0484038C7.18105 0.541616 5.6102 2.02463 5.03253 2.65635C3.93125 2.78472 2.4381 3.39617 0.890897 5.95344C-1.00763 9.09852 0.394306 12.5848 2.60363 14.2941C4.81295 16.0035 4.77241 18 4.77241 18L5.13388 16.9561C5.39062 16.1825 5.49872 15.3616 5.41089 14.5509C5.36021 14.0644 5.25549 13.5374 5.0528 13.105C4.52243 11.9632 6.19462 11.2031 6.66419 10.2539C7.02565 9.52079 7.04254 7.84859 7.61345 6.63921L8.29246 5.71697C8.29246 5.71697 9.85993 4.49745 11.397 4.84202C12.9341 5.18322 12.7145 -0.583314 9.60319 0.0484038Z" fill="#42210B"/>
</svg>
