<svg width="28" height="11" viewBox="0.27227210998535156 0.209869384765625 27.455455780029297 10.58026123046875" fill="none" xmlns="http://www.w3.org/2000/svg">
<path opacity="0.47" d="M0 10.7901C0.352083 8.79543 1.72548 7.31021 3.36495 7.31021C3.66596 7.31021 3.95892 7.36142 4.23575 7.45577C5.04473 5.20502 6.80246 3.64432 8.8397 3.64432C9.36648 3.64432 9.87445 3.74945 10.3528 3.94083C11.4494 1.57956 13.4437 0 15.7201 0C18.4293 0 20.7353 2.23457 21.6088 5.36405C22.2269 4.9166 22.9391 4.65783 23.6997 4.65783C26.0729 4.65783 28 7.15926 28 10.2456C28 10.4289 27.9919 10.6095 27.9785 10.7874H0V10.7901Z" fill="#F0FBFF"/>
</svg>
