<svg width="10" height="5" viewBox="0.04200458526611328 0.258544921875 9.915990829467773 4.48291015625" fill="none" xmlns="http://www.w3.org/2000/svg">
<path d="M4.28689 0.280122L4.90082 0.650623C4.90082 0.650623 5.49615 1.14907 5.65029 1.18372C5.80444 1.22103 9.99566 1.12774 9.99566 1.12774C9.99566 1.12774 10.0116 2.52712 9.98237 2.52712C9.95579 2.52712 7.77913 4.30765 7.77913 4.30765L7.31403 4.52089L4.45698 3.66527L1.84977 3.33742C1.84977 3.33742 0 3.12152 0 3.0762C0 3.03089 0.0531491 1.56488 0.127565 1.49291C0.199323 1.42095 1.24647 0.344091 1.24647 0.344091C1.24647 0.344091 2.0491 0.162841 2.07567 0.162841C2.10225 0.162841 2.8783 0.00824288 2.90754 0.000246451C2.93412 -0.00774997 4.15135 0.181501 4.15135 0.181501L4.28689 0.280122Z" fill="#FFD49C"/>
</svg>
