<svg width="17" height="17" viewBox="0.1934814453125 0.17946624755859375 16.613037109375 16.641067504882812" fill="none" xmlns="http://www.w3.org/2000/svg">
<path d="M7.18056 0.605571C7.18056 0.605571 10.9365 -1.41708 12.2205 1.93076C12.2205 1.93076 15.5919 1.58202 15.0151 5.13212C15.0151 5.13212 18.4071 6.86881 16.2579 11.3326C16.2579 11.3326 17.1986 15.5383 12.3578 15.8033C12.3578 15.8033 11.6369 17.2959 9.42587 16.9472C7.21489 16.5985 6.65184 16.0056 6.65184 16.0056C6.65184 16.0056 2.73799 17.1704 1.5501 13.5784C1.5501 13.5784 -1.14153 12.9228 0.664333 9.41456C0.664333 9.41456 -1.68398 4.86709 2.4496 3.50005C2.45647 3.50005 2.93711 -1.15204 7.18056 0.605571Z" fill="#754C24"/>
</svg>
