<svg width="15" height="16" viewBox="0.337615966796875 0.2703285217285156 14.32476806640625 15.459342956542969" fill="none" xmlns="http://www.w3.org/2000/svg">
<path d="M14.583 14.3521C14.6123 13.4275 14.6563 12.7191 14.7224 12.3686C14.9938 10.9146 14.7444 1.11667 13.8128 0.848234C12.6244 0.497775 11.8542 0.274078 10.3651 0.11749C9.09602 -0.0167285 4.16657 -0.0912951 3.28631 0.206968C3.28631 0.206968 1.2397 2.40666 0.73355 5.96345C0.689537 6.26917 0.381446 9.40839 0 13.3231C1.50378 14.0837 3.01489 14.8666 4.53334 15.5675C4.9588 15.7614 5.36225 15.8956 5.77304 16C8.5532 15.5228 11.9349 14.5683 14.4289 14.546C14.4729 14.4714 14.539 14.4192 14.583 14.3521Z" fill="#E39245"/>
</svg>
